<svg xmlns="http://www.w3.org/2000/svg" viewBox="0 0 104 53" fill="none"> <path d="M48.75725 43.604C48.75725 39.79225 53.33225 39.2045 54.729 41.8405L57.18325 40.41375C56.15 38.59225 54.16425 37.4625 51.9505 37.4625C48.622 37.4625 45.9275 40.10775 45.9275 43.601C45.9275 47.09425 48.622 49.6875 51.9505 49.6875C54.13125 49.6875 56.03275 48.62525 57.09025 46.87075L54.66 45.4595C53.191 47.9515 48.75725 47.3485 48.75725 43.604Z" fill="#121212"></path> <path d="M50.965 2.4555675C54.92425 2.4555675 56.913 5.52945 56.913 8.584975C56.913 11.640475 54.92425 14.680675 50.965 14.680675H46.20075V2.4555675H50.965ZM50.965 11.83335C52.98675 11.83335 54.017 10.192325 54.017 8.584975C54.017 6.9776 52.98975 5.284525 50.965 5.284525H49.11475V11.83335H50.965Z" fill="#121212"></path> <path d="M64.1045 7.645125V6.8338H66.3395V14.680775H64.1045V13.897C63.57875 14.564425 62.82475 14.7818 62.08275 14.7818C59.6345 14.7818 58.367 12.7795 58.382 10.617975C58.412 8.471775 59.6195 6.70215 62.11 6.70215C62.86675 6.70215 63.60875 6.993 64.1045 7.645125ZM64.1045 10.706775C64.1045 9.66275 63.3205 8.8055 62.35325 8.8055C61.21475 8.8055 60.644 9.71785 60.632 10.67615C60.617 11.61915 61.20275 12.589675 62.35325 12.589675C63.3235 12.59275 64.1045 11.7508 64.1045 10.706775Z" fill="#121212"></path> <path d="M72.08325 14.81255C70.362 14.82785 69.3225 14.01345 69.3225 11.968275V8.8791H68.31325V6.9227H69.3225V5.428625L71.5575 5.22655V6.9227H73.1645V8.8791H71.5575V11.968275C71.5575 12.66635 72.05625 12.883725 72.59675 12.883725C72.81025 12.883725 73.0385 12.8531 73.23675 12.810225L73.30875 14.6962C72.86425 14.769675 72.45275 14.81255 72.08325 14.81255Z" fill="#121212"></path> <path d="M80.85725 7.645125V6.8338H83.09225V14.680775H80.85725V13.897C80.3315 14.564425 79.5775 14.7818 78.8355 14.7818C76.38725 14.7818 75.11975 12.7795 75.13475 10.617975C75.16475 8.471775 76.37225 6.70215 78.8625 6.70215C79.6195 6.70215 80.3585 6.993 80.85725 7.645125ZM80.85725 10.706775C80.85725 9.66275 80.07325 8.8055 79.106 8.8055C77.9675 8.8055 77.39675 9.71785 77.3845 10.67615C77.3695 11.61915 77.95525 12.589675 79.106 12.589675C80.07325 12.59275 80.85725 11.7508 80.85725 10.706775Z" fill="#121212"></path> <path d="M46.46275 28.039V19.861325H49.3525V28.02375C49.3525 29.833 52.69875 29.79625 52.69875 28.02375V19.861325H55.58875V28.039C55.58875 30.76075 53.29075 32.10175 51.01075 32.0865C48.72775 32.0865 46.46275 30.76075 46.46275 28.039Z" fill="#121212"></path> <path d="M60.289 24.2394V25.02325C60.82975 24.328175 61.74 24.12305 62.566 24.12305C64.759 24.1506 65.35675 25.807 65.34175 27.76325V32.08625H63.06475V27.77875C63.06475 26.71925 62.482 26.24175 61.86925 26.24175C61.19925 26.24175 60.40325 26.8235 60.40325 27.8215V32.08625H58.027V24.2394H60.289Z" fill="#121212"></path> <path d="M73.104 24.94955V21.86035H75.339V32.08625H73.104V31.3025C72.57825 31.97 71.82425 32.18725 71.08225 32.18725C68.63425 32.18725 67.3665 30.185 67.3815 28.0235C67.4085 25.87725 68.619 24.1076 71.1095 24.1076C71.8665 24.1076 72.59325 24.355575 73.104 24.94955ZM73.104 28.11225C73.104 27.06825 72.32 26.211 71.35275 26.211C70.21425 26.211 69.6435 27.12325 69.6315 28.0815C69.6165 29.0245 70.20225 29.995 71.35275 29.995C72.323 29.99825 73.104 29.15625 73.104 28.11225Z" fill="#121212"></path> <path d="M84.8135 29.04H79.29225C79.5625 29.76575 80.2595 30.127 80.94425 30.14225C81.443 30.14225 81.9115 29.96775 82.239 29.6065H84.67225C84.0745 31.3485 82.45225 32.20275 80.83025 32.17525C78.8805 32.13225 76.946 30.7975 76.946 28.143C76.946 25.44575 78.95275 24.1108 80.95925 24.1261C82.939 24.141425 84.9005 25.47625 84.9005 28.143C84.9005 28.4615 84.8705 28.74925 84.8135 29.04ZM82.45225 27.255C82.239 26.47125 81.61125 26.11 80.88725 26.11C80.21725 26.11 79.6075 26.48675 79.37925 27.255H82.45225Z" fill="#121212"></path> <path d="M88.9505 32.08625H86.7155V24.239275H88.73725L88.82125 24.762825C89.32 24.2852 89.87575 24.080075 90.5005 24.080075C90.771 24.080075 91.06825 24.12295 91.36875 24.196425L91.33875 26.34275C91.11025 26.26925 90.84 26.22625 90.58475 26.22625C89.7735 26.2415 88.9475 26.67625 88.9475 27.73575V32.08625H88.9505Z" fill="#121212"></path> <path d="M58.68225 45.576C58.68225 39.97625 66.89525 39.9915 66.89525 45.576C66.89525 51.16025 58.68225 51.12975 58.68225 45.576ZM64.64525 45.576C64.64525 42.90625 60.93225 42.9215 60.93225 45.576C60.93225 48.19975 64.64525 48.215 64.64525 45.576Z" fill="#121212"></path> <path d="M70.659 41.64475V42.4285C71.19975 41.7335 72.10975 41.52825 72.936 41.52825C75.12875 41.556 75.72675 43.21225 75.7115 45.1685V49.49175H73.4345V45.184C73.4345 44.1245 72.85175 43.647 72.239 43.647C71.56925 43.647 70.773 44.22875 70.773 45.22675V49.49175H68.397V41.64475H70.659Z" fill="#121212"></path> <path d="M81.02875 49.62C79.3075 49.63525 78.268 48.821 78.268 46.77575V43.68975H77.25875V41.73325H78.268V40.23925L80.503 40.037V41.73325H82.11025V43.68975H80.503V46.77875C80.503 47.477 81.00175 47.69425 81.5425 47.69425C81.75575 47.69425 81.984 47.66375 82.18225 47.62075L82.25425 49.50675C81.81275 49.57725 81.40125 49.62 81.02875 49.62Z" fill="#121212"></path> <path d="M86.54425 49.4915H84.30925V41.6445H86.331L86.415 42.168C86.91375 41.6905 87.4695 41.48525 88.09425 41.48525C88.36475 41.48525 88.665 41.52825 88.9625 41.60175L88.9325 43.748C88.704 43.6745 88.43375 43.6315 88.1785 43.6315C87.36725 43.64675 86.54125 44.0815 86.54125 45.141V49.4915H86.54425Z" fill="#121212"></path> <path d="M90.19975 45.576C90.19975 39.97625 98.4125 39.9915 98.4125 45.576C98.4125 51.16025 90.19975 51.12975 90.19975 45.576ZM96.1625 45.576C96.1625 42.90625 92.44975 42.9215 92.44975 45.576C92.44675 48.19975 96.1625 48.215 96.1625 45.576Z" fill="#121212"></path> <path d="M102.1915 39.336V49.48825H99.9145V39.336H102.1915Z" fill="#121212"></path> <path d="M13.295175 2.265625C11.06025 2.265625 9.24585 4.11485 9.24585 6.3927C9.24585 8.670575 11.06025 10.5198 13.295175 10.5198C15.530125 10.5198 17.344525 8.670575 17.344525 6.3927C17.344525 4.11485 15.530125 2.265625 13.295175 2.265625ZM13.295175 9.252275C11.74515 9.252275 10.489475 7.972525 10.489475 6.3927C10.489475 4.8129 11.74515 3.53315 13.295175 3.53315C14.845225 3.53315 16.100875 4.8129 16.100875 6.3927C16.100875 7.972525 14.845225 9.252275 13.295175 9.252275Z" fill="#121212"></path> <path d="M28.168 2.265625C25.93325 2.265625 24.118775 4.11485 24.118775 6.3927C24.118775 8.670575 25.93325 10.5198 28.168 10.5198C30.403 10.5198 32.2175 8.670575 32.2175 6.3927C32.2175 4.11485 30.406 2.265625 28.168 2.265625ZM28.168 9.252275C26.618 9.252275 25.3625 7.972525 25.3625 6.3927C25.3625 4.8129 26.618 3.53315 28.168 3.53315C29.71825 3.53315 30.97375 4.8129 30.97375 6.3927C30.97375 7.972525 29.71825 9.252275 28.168 9.252275Z" fill="#121212"></path> <path d="M20.729975 10.415825C20.387525 10.415825 20.10815 10.1311 20.10815 9.782075V2.89645C20.10815 2.547425 20.387525 2.262695 20.729975 2.262695C21.072425 2.262695 21.3518 2.547425 21.3518 2.89645V9.782075C21.3518 10.134175 21.075425 10.415825 20.729975 10.415825Z" fill="#121212"></path> <path d="M13.295175 42.4805C11.06025 42.4805 9.24585 44.32975 9.24585 46.6075C9.24585 48.8855 11.06025 50.73475 13.295175 50.73475C15.530125 50.73475 17.344525 48.8855 17.344525 46.6075C17.344525 44.32975 15.530125 42.4805 13.295175 42.4805ZM13.295175 49.46725C11.74515 49.46725 10.489475 48.18725 10.489475 46.6075C10.489475 45.02775 11.74515 43.748 13.295175 43.748C14.845225 43.748 16.100875 45.02775 16.100875 46.6075C16.100875 48.18725 14.845225 49.46725 13.295175 49.46725Z" fill="#121212"></path> <path d="M28.168 42.4805C25.93325 42.4805 24.118775 44.32975 24.118775 46.6075C24.118775 48.8855 25.93325 50.73475 28.168 50.73475C30.403 50.73475 32.2175 48.8855 32.2175 46.6075C32.2175 44.32975 30.406 42.4805 28.168 42.4805ZM28.168 49.46725C26.618 49.46725 25.3625 48.18725 25.3625 46.6075C25.3625 45.02775 26.618 43.748 28.168 43.748C29.71825 43.748 30.97375 45.02775 30.97375 46.6075C30.97375 48.18725 29.71825 49.46725 28.168 49.46725Z" fill="#121212"></path> <path d="M20.729975 50.6335C20.387525 50.6335 20.10815 50.349 20.10815 49.99975V43.11425C20.10815 42.76525 20.387525 42.4805 20.729975 42.4805C21.072425 42.4805 21.3518 42.76525 21.3518 43.11425V49.99975C21.3518 50.349 21.075425 50.6335 20.729975 50.6335Z" fill="#121212"></path> <path d="M5.857675 12.04785C3.62275 12.04785 1.80835 13.897075 1.80835 16.17495C1.80835 18.4528 3.62275 20.302025 5.857675 20.302025C8.092625 20.302025 9.907025 18.4528 9.907025 16.17495C9.907025 13.897075 8.092625 12.04785 5.857675 12.04785ZM5.857675 19.037575C4.30765 19.037575 3.052 17.7578 3.052 16.178C3.052 14.5982 4.30765 13.318425 5.857675 13.318425C7.407725 13.318425 8.663375 14.5982 8.663375 16.178C8.663375 17.7578 7.407725 19.037575 5.857675 19.037575Z" fill="#121212"></path> <path d="M20.730725 12.04785C18.4958 12.04785 16.6814 13.897075 16.6814 16.17495C16.6814 18.4528 18.4958 20.302025 20.730725 20.302025C22.965675 20.302025 24.780075 18.4528 24.780075 16.17495C24.780075 13.897075 22.968675 12.04785 20.730725 12.04785ZM20.730725 19.037575C19.1807 19.037575 17.925025 17.7578 17.925025 16.178C17.925025 14.5982 19.1807 13.318425 20.730725 13.318425C22.280775 13.318425 23.536425 14.5982 23.536425 16.178C23.536425 17.7578 22.280775 19.037575 20.730725 19.037575Z" fill="#121212"></path> <path d="M13.295525 20.201C12.953075 20.201 12.6737 19.91625 12.6737 19.567225V12.6816C12.6737 12.332575 12.953075 12.04785 13.295525 12.04785C13.637975 12.04785 13.91735 12.332575 13.91735 12.6816V19.567225C13.91435 19.91625 13.637975 20.201 13.295525 20.201Z" fill="#121212"></path> <path d="M35.765 12.04785C33.53 12.04785 31.71575 13.897075 31.71575 16.17495C31.71575 18.4528 33.53 20.302025 35.765 20.302025C38 20.302025 39.81425 18.4528 39.81425 16.17495C39.81425 13.897075 38.003 12.04785 35.765 12.04785ZM35.765 19.037575C34.215 19.037575 32.95925 17.7578 32.95925 16.178C32.95925 14.5982 34.215 13.318425 35.765 13.318425C37.315 13.318425 38.57075 14.5982 38.57075 16.178C38.57075 17.7578 37.315 19.037575 35.765 19.037575Z" fill="#121212"></path> <path d="M28.3305 20.201C27.988 20.201 27.70875 19.91625 27.70875 19.567225V12.6816C27.70875 12.332575 27.988 12.04785 28.3305 12.04785C28.673 12.04785 28.9525 12.332575 28.9525 12.6816V19.567225C28.94925 19.91625 28.673 20.201 28.3305 20.201Z" fill="#121212"></path> <path d="M13.295175 21.97655C11.06025 21.97655 9.24585 23.8258 9.24585 26.10375C9.24585 28.3815 11.06025 30.23075 13.295175 30.23075C15.530125 30.23075 17.344525 28.3815 17.344525 26.10375C17.344525 23.8258 15.530125 21.97655 13.295175 21.97655ZM13.295175 28.96325C11.74515 28.96325 10.489475 27.6835 10.489475 26.10375C10.489475 24.52385 11.74515 23.244075 13.295175 23.244075C14.845225 23.244075 16.100875 24.52385 16.100875 26.10375C16.100875 27.6835 14.845225 28.96325 13.295175 28.96325Z" fill="#121212"></path> <path d="M5.85765 30.12975C5.5152 30.12975 5.23585 29.845 5.23585 29.496V22.610325C5.23585 22.2613 5.5152 21.97655 5.85765 21.97655C6.2001 21.97655 6.479475 22.2613 6.479475 22.610325V29.496C6.479475 29.845 6.2001 30.12975 5.85765 30.12975Z" fill="#121212"></path> <path d="M28.168 21.97655C25.93325 21.97655 24.118775 23.8258 24.118775 26.10375C24.118775 28.3815 25.93325 30.23075 28.168 30.23075C30.403 30.23075 32.2175 28.3815 32.2175 26.10375C32.2175 23.8258 30.406 21.97655 28.168 21.97655ZM28.168 28.96325C26.618 28.96325 25.3625 27.6835 25.3625 26.10375C25.3625 24.52385 26.618 23.244075 28.168 23.244075C29.71825 23.244075 30.97375 24.52385 30.97375 26.10375C30.97375 27.6835 29.71825 28.96325 28.168 28.96325Z" fill="#121212"></path> <path d="M35.765 32.17775C33.53 32.17775 31.71575 34.027 31.71575 36.30475C31.71575 38.58275 33.53 40.432 35.765 40.432C38 40.432 39.81425 38.58275 39.81425 36.30475C39.81425 34.027 38.003 32.17775 35.765 32.17775ZM35.765 39.1645C34.215 39.1645 32.95925 37.88475 32.95925 36.30475C32.95925 34.725 34.215 33.44525 35.765 33.44525C37.315 33.44525 38.57075 34.725 38.57075 36.30475C38.57375 37.88475 37.315 39.1645 35.765 39.1645Z" fill="#121212"></path> <path d="M5.857675 32.17775C3.62275 32.17775 1.80835 34.027 1.80835 36.30475C1.80835 38.58275 3.62275 40.432 5.857675 40.432C8.092625 40.432 9.907025 38.58275 9.907025 36.30475C9.907025 34.027 8.092625 32.17775 5.857675 32.17775ZM5.857675 39.1645C4.30765 39.1645 3.052 37.88475 3.052 36.30475C3.052 34.725 4.30765 33.44525 5.857675 33.44525C7.407725 33.44525 8.663375 34.725 8.663375 36.30475C8.663375 37.88475 7.407725 39.1645 5.857675 39.1645Z" fill="#121212"></path> <path d="M20.729975 30.12975C20.387525 30.12975 20.10815 29.845 20.10815 29.496V22.610325C20.10815 22.2613 20.387525 21.97655 20.729975 21.97655C21.072425 21.97655 21.3518 22.2613 21.3518 22.610325V29.496C21.3518 29.845 21.075425 30.12975 20.729975 30.12975Z" fill="#121212"></path> <path d="M20.730725 32.227C18.4958 32.227 16.6814 34.07625 16.6814 36.35425C16.6814 38.632 18.4958 40.48125 20.730725 40.48125C22.965675 40.48125 24.780075 38.632 24.780075 36.35425C24.780075 34.07625 22.968675 32.227 20.730725 32.227ZM20.730725 39.21675C19.1807 39.21675 17.925025 37.937 17.925025 36.35725C17.925025 34.7775 19.1807 33.49775 20.730725 33.49775C22.280775 33.49775 23.536425 34.7775 23.536425 36.35725C23.539425 37.934 22.280775 39.21675 20.730725 39.21675Z" fill="#121212"></path> <path d="M13.295525 40.38025C12.953075 40.38025 12.6737 40.0955 12.6737 39.7465V32.86075C12.6737 32.51175 12.953075 32.227 13.295525 32.227C13.637975 32.227 13.91735 32.51175 13.91735 32.86075V39.7465C13.91435 40.0955 13.637975 40.38025 13.295525 40.38025Z" fill="#121212"></path> <path d="M28.3305 40.38025C27.988 40.38025 27.70875 40.0955 27.70875 39.7465V32.86075C27.70875 32.51175 27.988 32.227 28.3305 32.227C28.673 32.227 28.9525 32.51175 28.9525 32.86075V39.7465C28.94925 40.0955 28.673 40.38025 28.3305 40.38025Z" fill="#121212"></path> <path d="M35.76525 30.12975C35.42275 30.12975 35.14325 29.845 35.14325 29.496V22.610325C35.14325 22.2613 35.42275 21.97655 35.76525 21.97655C36.1075 21.97655 36.387 22.2613 36.387 22.610325V29.496C36.387 29.845 36.1105 30.12975 35.76525 30.12975Z" fill="#121212"></path> </svg>