<?xml version="1.0" encoding="UTF-8" standalone="no"?>
<!-- Created with Inkscape (http://www.inkscape.org/) -->

<svg
   width="183.19347mm"
   height="54.017731mm"
   viewBox="0 0 183.19347 54.017731"
   version="1.1"
   id="svg5"
   xml:space="preserve"
   xmlns="http://www.w3.org/2000/svg"
   xmlns:svg="http://www.w3.org/2000/svg"><defs
     id="defs2" /><g
     id="layer1"
     transform="translate(-15.644257,-306.30901)"><path
       style="fill:#e8451e;fill-opacity:1;stroke-width:0.221709"
       d="m 44.017042,310.24552 c 1.074945,-1.07494 0.763477,-2.48425 -0.718404,-3.25056 -1.209889,-0.62565 -2.853873,0.5259 -2.83894,1.98859 0.01818,1.78534 2.244294,2.57503 3.557344,1.26197 z"
       id="path2377-6-5-3" /><path
       style="fill:#dcba10;fill-opacity:1;stroke-width:0.221709"
       d="m 41.846404,311.40528 c -2.367331,-0.46783 -2.474028,-4.1869 -0.142193,-4.95647 2.193883,-0.72404 4.146778,1.49736 3.167461,3.60295 -0.45718,0.98294 -1.818496,1.592 -3.025268,1.35352 z"
       id="path2375-1-9-0" /><path
       style="fill:#e8451e;fill-opacity:1;stroke-width:0.221709"
       d="m 57.605189,313.3163 c 0.983014,-0.77323 0.703396,-2.18318 -0.517361,-2.60874 -0.580342,-0.20231 -0.754595,-0.15937 -1.334929,0.32895 -1.678582,1.41243 0.128073,3.63606 1.85229,2.27979 z"
       id="path2373-2-8-3" /><path
       style="fill:#84bf31;fill-opacity:1;stroke-width:0.221709"
       d="m 55.073695,313.65246 c -1.710911,-1.82117 0.812824,-4.71249 2.769759,-3.17316 1.72508,1.35695 0.879165,3.73993 -1.327597,3.73993 -0.68905,0 -1.038871,-0.13747 -1.442162,-0.56677 z"
       id="path2371-9-4-0" /><path
       style="fill:#e8451e;fill-opacity:1;stroke-width:0.221709"
       d="m 29.129411,313.19164 c 1.288355,-1.63788 -0.549204,-3.56888 -2.11473,-2.22227 -1.16417,1.00137 -0.566206,2.80644 0.929694,2.80644 0.519725,0 0.85587,-0.1657 1.185036,-0.58417 z"
       id="path2369-3-8-9" /><path
       style="fill:#e15122;fill-opacity:1;stroke-width:0.221709"
       d="m 26.614088,313.9586 c -1.558478,-1.34055 -0.662151,-3.95183 1.356482,-3.95183 2.858104,0 2.970934,3.98403 0.123648,4.36592 -0.694966,0.0932 -0.984521,0.0122 -1.48013,-0.41409 z"
       id="path2367-1-1-2" /><path
       style="fill:#e8451e;fill-opacity:1;stroke-width:0.221709"
       d="m 38.92831,320.56601 c 0.44198,-1.65267 -0.115981,-7.18102 -0.796442,-7.89126 -2.212586,-2.30944 -5.671738,0.48516 -4.189447,3.38459 0.368851,0.72149 2.963645,4.14678 3.696562,4.8797 0.548483,0.54848 1.084347,0.39345 1.289327,-0.37303 z"
       id="path2365-9-0-5" /><path
       style="fill:#ea6419;fill-opacity:1;stroke-width:0.221709"
       d="m 36.967999,321.03678 c -2.577825,-2.69422 -4.231822,-5.68459 -3.934373,-7.11324 0.588093,-2.82463 4.414991,-3.56186 5.992415,-1.15441 0.577686,0.88167 0.7631,8.06808 0.222117,8.60906 -0.605934,0.60593 -1.502143,0.47174 -2.280159,-0.34141 z"
       id="path2363-4-3-4" /><path
       style="fill:#e8451e;fill-opacity:1;stroke-width:0.221709"
       d="m 57.826963,321.50033 c 2.879807,-1.88527 3.027731,-4.06994 0.330296,-4.87811 -1.529661,-0.4583 -2.346013,0.43758 -3.044633,3.3412 -0.732498,3.04447 -0.11909,3.3918 2.714337,1.53691 z"
       id="path2361-7-0-0" /><path
       style="fill:#70b43f;fill-opacity:1;stroke-width:0.221709"
       d="m 54.642014,322.86588 c -0.833019,-0.83303 0.136922,-5.28056 1.379676,-6.32627 1.726798,-1.453 4.60327,0.0355 4.605633,2.38322 0.0017,2.03459 -4.757948,5.17041 -5.985309,3.94305 z"
       id="path2359-8-4-5" /><path
       style="fill:#e8451e;fill-opacity:1;stroke-width:0.221709"
       d="m 20.619788,322.32168 c 0.998582,-0.99858 0.281561,-2.78144 -1.118619,-2.78144 -0.906433,0 -1.743097,0.97879 -1.576076,1.8438 0.275076,1.42456 1.708866,1.92346 2.694695,0.93764 z"
       id="path2357-4-4-9" /><path
       style="fill:#d63326;fill-opacity:1;stroke-width:0.221709"
       d="m 17.939129,322.7651 c -1.329373,-1.32938 -0.40123,-3.66828 1.455678,-3.66828 1.625574,0 2.597266,1.12516 2.291597,2.6535 -0.304655,1.52325 -2.613547,2.14851 -3.747275,1.01478 z"
       id="path2355-5-4-4" /><path
       style="fill:#e8451e;fill-opacity:1;stroke-width:0.221709"
       d="m 33.091914,322.59983 c 0.448465,-0.44847 0.306641,-0.78024 -0.757695,-1.77256 -0.563056,-0.52495 -1.325058,-1.48571 -1.693331,-2.135 -1.532954,-2.70275 -2.943894,-3.41363 -4.715095,-2.37564 -1.884988,1.10468 -1.430062,4.01598 0.724286,4.63506 2.398796,0.68932 3.619478,1.1089 4.269094,1.46738 0.891081,0.49174 1.787206,0.56629 2.172741,0.18076 z"
       id="path2353-0-4-6" /><path
       style="fill:#e8471f;fill-opacity:1;stroke-width:0.221709"
       d="m 31.323846,323.1898 c -0.405486,-0.15032 -1.236083,-0.47522 -1.845779,-0.72199 -0.609704,-0.24676 -1.707165,-0.62014 -2.4388,-0.82973 -4.01625,-1.15048 -3.834959,-6.3103 0.221706,-6.3103 1.419202,0 2.293163,0.59588 3.390993,2.31202 0.551634,0.86234 1.48592,2.0857 2.076192,2.71858 1.87794,2.01351 1.025481,3.73228 -1.404312,2.83142 z"
       id="path2351-3-7-9" /><path
       style="fill:#e8451e;fill-opacity:1;stroke-width:0.221709"
       d="m 65.489659,322.50341 c 0.74351,-0.94522 0.45583,-2.15015 -0.65534,-2.74483 -0.61732,-0.33038 -1.931722,0.26708 -2.212554,1.00572 -0.684894,1.80141 1.687344,3.23995 2.867894,1.73911 z"
       id="path2349-6-6-2" /><path
       style="fill:#53ae56;fill-opacity:1;stroke-width:0.221709"
       d="m 63.120691,323.43203 c -1.55785,-0.69985 -1.524667,-3.35245 0.05095,-4.07033 1.692488,-0.77115 3.220968,0.23403 3.220968,2.11822 0,1.78427 -1.56588,2.71852 -3.271891,1.95211 z"
       id="path2347-1-3-2" /><path
       style="fill:#e8451e;fill-opacity:1;stroke-width:0.221709"
       d="m 44.114462,323.53068 c 0.998365,-1.84378 2.473257,-4.22744 3.507905,-5.66933 0.18135,-0.25272 1.080895,-0.82106 1.998991,-1.26297 2.868981,-1.38094 3.42235,-3.90621 1.158498,-5.28671 -2.002067,-1.22086 -3.602233,-0.1625 -4.664886,3.08538 -0.468701,1.43254 -0.959651,1.91678 -2.427362,2.39421 -1.935851,0.6297 -1.904704,0.55494 -1.904704,4.57159 0,5.17512 0.467712,5.60998 2.331558,2.16783 z"
       id="path2345-0-1-4" /><path
       style="fill:#adc124;fill-opacity:1;stroke-width:0.221709"
       d="m 41.563971,325.75328 c -0.147178,-0.275 -0.212011,-1.94713 -0.174076,-4.48939 l 0.06042,-4.05117 0.775988,-0.37116 c 0.426787,-0.20413 1.197798,-0.54263 1.713366,-0.75223 1.108539,-0.45066 1.452729,-0.91948 1.960588,-2.6705 1.313971,-4.53042 7.339871,-3.7085 6.647771,0.90675 -0.18668,1.24483 -0.880003,1.97151 -2.630306,2.75682 -0.773005,0.34682 -1.630074,0.917 -1.904596,1.26708 -0.946101,1.20648 -2.952357,4.40934 -3.731756,5.9575 -0.42972,0.85359 -0.89331,1.62527 -1.030198,1.71485 -0.498273,0.3261 -1.450047,0.17461 -1.687222,-0.26855 z"
       id="path2343-6-7-7" /><path
       style="fill:#e8451e;fill-opacity:1;stroke-width:0.221709"
       d="m 37.404155,327.91725 c 0.796031,-0.91214 0.287049,-3.34422 -0.824355,-3.93902 -0.989683,-0.52967 -3.661619,0.80435 -4.559035,2.27617 -0.585772,0.96071 -0.606947,0.92411 0.839941,1.45168 2.679226,0.97689 3.828581,1.03031 4.543449,0.21117 z"
       id="path2335-3-5-7" /><path
       style="fill:#d95424;fill-opacity:1;stroke-width:0.221709"
       d="m 33.080828,328.38458 c -2.661311,-0.93015 -2.568474,-2.36239 0.271254,-4.18464 2.847245,-1.82707 4.883483,-0.83114 4.883483,2.38854 0,2.55207 -1.498179,3.07409 -5.154737,1.7961 z"
       id="path2333-2-9-5" /><path
       style="fill:#e8451e;fill-opacity:1;stroke-width:0.221709"
       d="m 50.355691,327.74639 c 0.71129,-0.37797 1.662075,-0.8972 2.112861,-1.15384 l 0.819604,-0.46662 -0.534833,-0.42069 c -0.745738,-0.5866 -0.966246,-1.60311 -0.828109,-3.81734 0.155114,-2.48625 -0.275059,-2.60689 -1.848922,-0.51853 -0.574367,0.76213 -1.59772,1.95735 -2.274117,2.65604 -1.339076,1.38323 -1.47635,1.92137 -0.920091,3.60688 0.455739,1.3809 1.052781,1.40051 3.473607,0.1141 z"
       id="path2331-0-6-4" /><path
       style="fill:#5eaf48;fill-opacity:1;stroke-width:0.221709"
       d="m 46.890757,328.9732 c -0.380624,-0.45862 -0.895388,-2.27431 -0.895388,-3.15823 0,-0.61451 0.251286,-1.01751 1.395027,-2.23728 0.767265,-0.81827 1.816979,-2.06007 2.332698,-2.75956 1.877379,-2.54634 2.954838,-1.94009 2.762284,1.55426 l -0.119542,2.16938 0.825218,0.72454 c 1.03339,0.90733 0.969002,1.05864 -0.904757,2.12612 -3.443977,1.96202 -4.759314,2.34738 -5.39554,1.58077 z"
       id="path2329-6-2-8" /><path
       style="fill:#e8451e;fill-opacity:1;stroke-width:0.221709"
       d="m 63.058314,328.81024 c 0.891205,-0.95659 0.381345,-2.63877 -1.15497,-3.81058 -1.511444,-1.15282 -2.99035,-1.04829 -4.942131,0.34935 l -1.287928,0.92227 0.791071,0.68069 c 2.344354,2.01722 5.592954,2.93272 6.593958,1.85827 z"
       id="path2327-1-1-1" /><path
       style="fill:#53ad4c;fill-opacity:1;stroke-width:0.221709"
       d="m 59.848981,329.57348 c -0.945741,-0.33706 -3.224299,-1.72241 -4.597263,-2.79512 -1.636031,-1.27824 4.165783,-3.76251 6.284032,-2.69074 4.242349,2.1465 2.731419,7.06046 -1.686769,5.48586 z"
       id="path2325-5-7-2" /><path
       style="fill:#e8451e;fill-opacity:1;stroke-width:0.221709"
       d="m 31.3184,329.91544 c 0.04341,-0.22546 -0.174471,-0.50724 -0.551726,-0.71349 -0.870803,-0.47608 -1.418431,-0.98449 -2.167982,-2.01272 -2.021985,-2.77372 -3.376916,-3.49772 -4.987347,-2.66493 -1.682094,0.86984 -2.033121,2.48832 -0.825478,3.80608 l 0.735037,0.80207 2.535165,0.16676 c 1.846006,0.12143 2.806369,0.29372 3.532851,0.63382 1.129906,0.52893 1.625205,0.52389 1.72948,-0.0176 z"
       id="path2323-5-8-8" /><path
       style="fill:#dc3e1e;fill-opacity:1;stroke-width:0.221709"
       d="m 30.475752,330.9185 c -0.182908,-0.0636 -0.948196,-0.35503 -1.700629,-0.64763 -1.045692,-0.40662 -1.795334,-0.53199 -3.181269,-0.53199 -2.964265,0 -3.986453,-0.79391 -3.986453,-3.09617 0,-3.88961 4.569057,-3.93444 7.263869,-0.0712 0.579563,0.83083 1.329273,1.58014 1.937804,1.93676 1.234341,0.72337 1.534203,1.5475 0.784083,2.15492 -0.52751,0.42715 -0.585345,0.44037 -1.117405,0.25538 z"
       id="path2321-4-5-9" /><path
       style="fill:#e8451e;fill-opacity:1;stroke-width:0.221709"
       d="m 19.752354,335.1104 c 1.321471,-1.07044 1.254611,-2.84942 -0.138003,-3.67205 -2.340039,-1.3823 -4.700917,1.6434 -2.686625,3.44318 0.818104,0.73097 2.078672,0.83312 2.824628,0.22887 z"
       id="path2319-7-7-3" /><path
       style="fill:#d02539;fill-opacity:1;stroke-width:0.221709"
       d="m 17.284075,335.86778 c -2.518691,-1.15073 -2.01203,-5.11664 0.672969,-5.26767 1.342873,-0.0755 1.717053,0.0433 2.45313,0.77942 2.161931,2.16193 -0.343755,5.75944 -3.126099,4.48825 z"
       id="path2317-6-4-6" /><path
       style="fill:#e8451e;fill-opacity:1;stroke-width:0.221709"
       d="m 67.365229,335.51285 c 2.09324,-0.79586 1.22696,-4.23476 -0.99179,-3.93716 -2.41992,0.32458 -3.191686,2.34954 -1.36782,3.58889 0.88278,0.59987 1.46992,0.68653 2.35961,0.34827 z"
       id="path2315-5-1-8" /><path
       style="fill:#2a996e;fill-opacity:1;stroke-width:0.221709"
       d="m 64.704999,335.72424 c -1.610519,-1.14154 -1.798925,-2.58245 -0.49672,-3.7989 2.02605,-1.8926 4.88177,-0.91515 4.88177,1.67093 0,2.42436 -2.35474,3.56706 -4.38505,2.12797 z"
       id="path2313-6-8-0" /><path
       style="fill:#e8451e;fill-opacity:1;stroke-width:0.221709"
       d="m 56.47995,335.25178 c 0.513382,-0.2603 1.249609,-0.74901 1.636048,-1.08603 0.387001,-0.33752 1.111028,-0.68178 1.611781,-0.76638 2.197972,-0.37135 1.952443,-1.66511 -0.316009,-1.66511 -0.782365,0 -2.001028,-0.15084 -2.708128,-0.33521 -4.096559,-1.0681 -6.052387,-0.58268 -6.052387,1.50216 0,2.13746 3.48057,3.54108 5.828695,2.35057 z"
       id="path2311-9-5-2" /><path
       style="fill:#379f60;fill-opacity:1;stroke-width:0.221709"
       d="m 52.25184,335.69378 c -2.204223,-0.93158 -2.765401,-2.1127 -1.941122,-4.08547 0.638505,-1.52817 2.277134,-1.70506 6.628809,-0.71557 1.265018,0.28763 2.281935,0.3961 2.854853,0.30448 1.145601,-0.18319 1.943761,0.29097 1.938926,1.15186 -0.0059,0.97652 -0.723146,1.60228 -1.837592,1.60228 -0.296938,0 -1.042793,0.40042 -1.65745,0.88982 -2.19007,1.74375 -3.452457,1.92355 -5.986424,0.8526 z"
       id="path2309-3-9-1" /><path
       style="fill:#e8451e;fill-opacity:1;stroke-width:0.221709"
       d="m 43.94357,336.71427 c 2.262846,-0.94548 3.078042,-3.27997 1.941658,-5.56038 -1.50014,-3.01038 -5.571602,-2.86643 -7.008921,0.24781 -1.512232,3.27658 1.751283,6.69808 5.067263,5.31257 z"
       id="path2307-7-7-0" /><path
       style="fill:#01a78e;fill-opacity:1;stroke-width:0.221709"
       d="m 40.706542,337.3411 c -4.446112,-1.78078 -3.100273,-8.85286 1.684734,-8.85286 4.522969,0 6.29412,6.25644 2.41475,8.52991 -1.020578,0.5981 -3.019368,0.75556 -4.099484,0.32295 z"
       id="path2305-4-5-5" /><path
       style="fill:#e8451e;fill-opacity:1;stroke-width:0.221709"
       d="m 26.339742,340.6157 c 0.296695,-0.1128 0.974533,-0.77978 1.506316,-1.48218 1.566271,-2.0688 1.994684,-2.42174 3.579952,-2.94929 3.335227,-1.10989 4.1235,-3.61728 1.239394,-3.94236 -1.234819,-0.13919 -2.070344,0.2513 -3.235737,1.51222 -1.135806,1.22894 -1.797329,1.52753 -3.384206,1.52753 -2.377152,0 -3.772933,0.99937 -3.772933,2.70141 0,2.30843 1.82054,3.48686 4.067214,2.63267 z"
       id="path2303-5-3-1" /><path
       style="fill:#c72435;fill-opacity:1;stroke-width:0.221709"
       d="m 23.381067,341.10006 c -3.237958,-1.74998 -1.771051,-6.26048 2.03638,-6.26152 1.71526,-4.4e-4 2.302758,-0.2654 3.750577,-1.6913 2.290406,-2.25574 5.786244,-1.97012 5.786244,0.47274 0,1.43308 -0.864685,2.19785 -3.694785,3.26785 -1.163668,0.43996 -1.469898,0.69378 -2.549653,2.11327 -1.850883,2.43325 -3.504813,3.08472 -5.328763,2.09896 z"
       id="path2301-2-8-1" /><path
       style="fill:#e8451e;fill-opacity:1;stroke-width:0.221709"
       d="m 61.950948,340.93906 c 1.989961,-1.02904 1.043849,-4.10547 -1.262571,-4.10547 -1.233679,0 -4.937816,1.85368 -4.937816,2.47105 0,1.14111 4.738776,2.39025 6.200387,1.63442 z"
       id="path2273-5-8-0" /><path
       style="fill:#118c7f;fill-opacity:1;stroke-width:0.221709"
       d="m 57.884287,341.34832 c -3.614677,-1.11001 -3.703844,-2.21499 -0.32692,-4.05146 3.622286,-1.96989 5.953007,-1.19406 5.953007,1.98157 0,2.26191 -2.275089,3.09894 -5.626087,2.06989 z"
       id="path2271-4-3-8" /><path
       style="fill:#e8451e;fill-opacity:1;stroke-width:0.221709"
       d="m 65.846439,344.57768 c 0.36985,-0.71521 0.15022,-1.60721 -0.45269,-1.83857 -0.98938,-0.37966 -2.10509,0.15904 -2.10509,1.01639 0,1.58236 1.85614,2.17901 2.55778,0.82218 z"
       id="path2257-7-1-5" /><path
       style="fill:#028783;fill-opacity:1;stroke-width:0.221709"
       d="m 63.401213,345.42481 c -0.861543,-0.74447 -0.880422,-2.23803 -0.03746,-2.96312 1.436086,-1.23526 3.250546,-0.29338 3.250546,1.68736 0,1.5546 -1.9804,2.34092 -3.213081,1.27576 z"
       id="path2255-4-8-0" /><path
       style="fill:#e8451e;fill-opacity:1;stroke-width:0.221709"
       d="m 20.922742,345.22914 c 0.800959,-0.7462 0.578465,-2.00193 -0.448842,-2.53317 -1.670203,-0.86369 -3.288846,1.24577 -1.914995,2.49569 0.876568,0.7975 1.536818,0.80797 2.363837,0.0375 z"
       id="path2253-4-9-6" /><path
       style="fill:#b82451;fill-opacity:1;stroke-width:0.221709"
       d="m 18.836042,346.15748 c -1.544208,-0.63203 -1.782472,-3.22691 -0.36591,-3.98503 0.827363,-0.4428 2.21784,-0.29231 2.814782,0.30464 1.695024,1.69502 -0.230228,4.58847 -2.448872,3.68039 z"
       id="path2251-3-6-4" /><path
       style="fill:#e8451e;fill-opacity:1;stroke-width:0.221709"
       d="m 27.664775,349.96867 c 0.344022,-0.21275 0.892757,-0.87722 1.219391,-1.47661 0.681928,-1.25133 0.639913,-1.22442 3.151137,-2.01746 2.727577,-0.86135 5.127093,-3.05935 6.345488,-5.81259 0.123833,-0.27983 -2.258137,-3.16329 -2.61312,-3.16329 -0.186319,0 -3.107362,2.12613 -4.902973,3.56872 -0.461253,0.37057 -1.085194,1.20566 -1.403432,1.87835 -0.629597,1.33085 -1.235724,1.76688 -2.786719,2.00467 -1.253698,0.19221 -2.092289,0.62569 -2.543947,1.31502 -0.438585,0.66935 -0.530559,2.35472 -0.13569,2.48634 0.15167,0.0505 0.224983,0.17408 0.162932,0.27448 -0.543715,0.87975 2.350572,1.65749 3.506933,0.94237 z"
       id="path2245-0-4-6" /><path
       style="fill:#7c3b7b;fill-opacity:1;stroke-width:0.221709"
       d="m 25.422793,350.80686 c -3.4875,-0.83664 -2.824351,-5.78249 0.850734,-6.34487 1.530449,-0.2342 2.040989,-0.60527 2.763516,-2.00859 0.57187,-1.11071 1.016632,-1.55945 3.103927,-3.13168 3.868082,-2.9136 3.708242,-2.88036 5.247431,-1.09124 1.764079,2.05052 1.87463,2.29248 1.367743,2.99348 -0.237853,0.32894 -0.773005,1.09693 -1.189217,1.70662 -1.669557,2.4457 -2.838588,3.3335 -5.539215,4.20666 -0.670666,0.21684 -1.434051,0.47483 -1.696398,0.57331 -0.262355,0.0985 -0.756388,0.69238 -1.097846,1.31976 -0.843443,1.54968 -2.172859,2.16946 -3.810675,1.77655 z"
       id="path2243-7-3-2" /><path
       style="fill:#e8451e;fill-opacity:1;stroke-width:0.221709"
       d="m 50.6443,353.51718 c 0.669844,-0.614 1.337208,-2.53202 1.337208,-3.84318 0,-0.92197 -0.600043,-2.40015 -1.592927,-3.92408 -1.0789,-1.65596 -0.988418,-2.35675 0.336397,-2.60529 1.488551,-0.27926 2.90203,0.98767 4.579867,4.10502 1.624542,3.01831 3.930778,3.56686 5.332282,1.26832 1.26558,-2.07561 0.09169,-3.42808 -3.997286,-4.60539 -2.028664,-0.58409 -3.106366,-1.54883 -3.106366,-2.78072 0,-0.88917 -0.216326,-1.15275 -2.327947,-2.83656 -1.868421,-1.48987 -1.823046,-1.48596 -2.957318,-0.25541 -1.162587,1.26125 -1.290626,1.82188 -0.816285,3.57423 0.365549,1.35044 0.365206,1.60516 -0.0067,5.13772 -0.476528,4.52398 -0.367334,5.59949 0.674303,6.64112 0.906474,0.90648 1.65186,0.94286 2.544969,0.12422 z"
       id="path2241-8-3-5" /><path
       style="fill:#078a85;fill-opacity:1;stroke-width:0.221709"
       d="m 47.800851,354.00877 c -1.240801,-1.04406 -1.309647,-1.85661 -0.788347,-9.30451 0.103906,-1.48454 0.04944,-2.34003 -0.212874,-3.3416 -0.522398,-1.99491 1.02512,-4.97249 2.584336,-4.97249 0.997166,0 4.592922,3.30001 4.592922,4.21517 0,1.14479 1.062132,2.29341 2.444221,2.64323 4.982538,1.26116 6.803949,3.95807 4.230632,6.26417 -2.1109,1.89169 -4.18586,1.15657 -5.932359,-2.10175 -1.145718,-2.13749 -2.663204,-3.70443 -3.587535,-3.70443 -1.005579,0 -1.081129,0.46773 -0.266729,1.65141 3.229511,4.69395 0.704602,11.82209 -3.064267,8.6508 z"
       id="path2239-6-3-8" /><path
       style="fill:#e8451e;fill-opacity:1;stroke-width:0.221709"
       d="m 37.241332,355.01061 c 0.161172,-0.13377 0.693064,-0.91653 1.181968,-1.73949 1.1286,-1.8997 2.017921,-2.45486 3.311614,-2.06726 2.738872,0.82059 2.930202,0.48755 2.930202,-5.10026 0,-5.07286 0.03612,-4.99336 -2.165476,-4.76614 -1.8147,0.1873 -2.676151,1.62249 -3.276219,5.4582 -0.220373,1.40864 -1.586801,2.80806 -3.138433,3.21419 -2.066824,0.54098 -2.948729,1.47307 -2.948729,3.11653 0,1.89546 2.634496,3.1047 4.105073,1.88423 z"
       id="path2161-8-8-6" /><path
       style="fill:#4e4285;fill-opacity:1;stroke-width:0.221709"
       d="m 34.124459,355.72215 c -2.458476,-1.54723 -1.896627,-5.15768 0.937118,-6.02196 2.745139,-0.83726 3.142422,-1.28717 3.943817,-4.46634 1.007934,-3.99848 1.374011,-4.40096 4.007996,-4.40646 2.190028,-0.004 2.095146,-0.24787 2.095146,5.37216 v 4.84332 l -0.571124,0.57114 c -0.594269,0.59426 -0.826835,0.60657 -3.117494,0.16495 -0.943143,-0.18183 -1.689953,0.34414 -2.501437,1.76172 -1.357755,2.37186 -3.176477,3.19946 -4.794022,2.18147 z"
       id="path2159-8-6-2" /><path
       style="fill:#e8451e;fill-opacity:1;stroke-width:0.221709"
       d="m 57.866874,355.79957 c 1.443587,-1.44358 -0.549287,-3.6515 -2.136097,-2.36658 -0.370795,0.30025 -0.512317,0.645 -0.512317,1.24796 0,1.52362 1.577232,2.18981 2.648414,1.11862 z"
       id="path2157-4-0-8" /><path
       style="fill:#0f6d8f;fill-opacity:1;stroke-width:0.221709"
       d="m 55.57961,356.6388 c -1.183862,-0.47632 -1.130543,-3.46565 0.07005,-3.92636 1.688839,-0.64807 3.20485,0.28311 3.20485,1.96851 0,1.68183 -1.593363,2.6344 -3.274878,1.95785 z"
       id="path2155-3-4-4" /><path
       style="fill:#e8451e;fill-opacity:1;stroke-width:0.221709"
       d="m 29.044719,356.02128 c 1.451974,-1.45197 -0.511128,-3.68239 -2.105043,-2.39172 -0.722259,0.58485 -0.684659,1.7633 0.07718,2.41859 0.769955,0.66229 1.346359,0.65466 2.027876,-0.0269 z"
       id="path2153-1-8-7" /><path
       style="fill:#7e3771;fill-opacity:1;stroke-width:0.221709"
       d="m 26.63399,356.55587 c -1.159134,-0.91177 -0.958939,-3.00045 0.352586,-3.67866 1.830772,-0.94674 3.769363,0.94934 2.957427,2.89257 -0.538604,1.28908 -2.17616,1.67798 -3.310013,0.78609 z"
       id="path2151-4-8-2" /><path
       style="fill:#e8451e;fill-opacity:1;stroke-width:0.221709"
       d="m 44.250178,359.54382 c 0.971088,-0.50217 1.403875,-1.63969 0.995607,-2.6168 -0.6663,-1.59469 -2.368554,-1.97644 -3.484785,-0.78151 -1.748276,1.87154 0.226934,4.56817 2.489178,3.39831 z"
       id="path2135-9-8-4" /><path
       style="fill:#165998;fill-opacity:1;stroke-width:0.221709"
       d="m 41.836415,360.04071 c -2.519821,-1.39943 -1.173027,-5.46688 1.712545,-5.17204 3.359713,0.34327 3.237849,5.48244 -0.129422,5.458 -0.5953,-0.004 -1.307704,-0.133 -1.583123,-0.28596 z"
       id="path375-2-9-0" /><path
       style="display:inline;fill:#f1b81d;fill-opacity:1;stroke-width:0.3308"
       d="m 194.95744,324.52176 c -1.86109,-0.35949 -2.67752,-3.21144 -1.38849,-4.8502 1.52997,-1.94502 5.26879,-0.68084 5.26879,1.78151 0,1.63899 -1.61893,3.47066 -2.87805,3.25623 -0.14551,-0.0247 -0.59652,-0.10919 -1.00225,-0.18754 z"
       id="path52809-6-6-6" /><path
       d="m 90.008167,337.04402 q 0,3.01345 -2.188712,4.82153 -2.157007,1.77634 -6.153796,1.77634 -3.584423,0 -6.407549,-1.36398 v -4.4726 q 1.617746,0.69786 3.330658,1.30054 1.744628,0.57097 3.457539,0.57097 1.776347,0 2.505926,-0.66614 0.761296,-0.69784 0.761296,-1.74462 0,-0.85645 -0.602696,-1.45915 -0.570966,-0.60268 -1.554311,-1.11021 -0.983331,-0.53925 -2.252159,-1.14195 -0.793015,-0.38065 -1.712912,-0.88817 -0.919896,-0.53926 -1.776346,-1.30054 -0.824733,-0.79302 -1.363981,-1.90324 -0.53926,-1.11021 -0.53926,-2.66452 0,-3.04518 2.061841,-4.72638 2.061842,-1.71291 5.614547,-1.71291 1.776347,0 3.362375,0.41237 1.617746,0.41238 3.362375,1.17366 l -1.554299,3.74304 q -1.554311,-0.63442 -2.791409,-0.98334 -1.237109,-0.34892 -2.537654,-0.34892 -1.363981,0 -2.093547,0.6344 -0.729579,0.63441 -0.729579,1.64948 0,1.20537 1.078497,1.90322 1.078498,0.69786 3.203775,1.71291 1.74464,0.82474 2.950021,1.71291 1.237097,0.88818 1.903229,2.09357 0.666131,1.20537 0.666131,2.98173 z"
       style="font-weight:bold;font-size:26.9024px;-inkscape-font-specification:'sans-serif Bold';letter-spacing:0px;fill:#ffffff;stroke-width:0.371725"
       id="path1909-2" /><path
       d="m 114.0841,325.68806 q 2.95001,0 4.44088,1.52257 1.52259,1.49087 1.52259,4.82155 v 11.29251 h -4.72637 v -10.11885 q 0,-3.74304 -2.60109,-3.74304 -1.87151,0 -2.66453,1.33227 -0.79301,1.33225 -0.79301,3.83818 v 8.69144 h -4.72636 v -10.11885 q 0,-3.74304 -2.60109,-3.74304 -1.966678,0 -2.727968,1.49087 -0.729567,1.45915 -0.729567,4.21883 v 8.15219 h -4.72637 v -17.31943 h 3.616143 l 0.634409,2.22044 h 0.253768 q 0.793018,-1.33227 2.156995,-1.93496 1.39571,-0.60268 2.88657,-0.60268 1.90324,0 3.23551,0.6344 1.33226,0.6027 2.03011,1.90324 h 0.41237 q 0.79301,-1.33227 2.18871,-1.93496 1.42743,-0.60268 2.9183,-0.60268 z"
       style="font-weight:bold;font-size:26.9024px;-inkscape-font-specification:'sans-serif Bold';letter-spacing:0px;fill:#ffffff;stroke-width:0.371725"
       id="path1911-9" /><path
       d="m 132.00623,325.65632 q 3.48925,0 5.32905,1.5226 1.87151,1.49087 1.87151,4.59949 v 11.54628 h -3.29894 l -0.91989,-2.34733 h -0.12689 q -1.11021,1.39571 -2.34732,2.03013 -1.2371,0.6344 -3.3941,0.6344 -2.3156,0 -3.83819,-1.33226 -1.52258,-1.36399 -1.52258,-4.15539 0,-2.75969 1.93495,-4.06024 1.93496,-1.33226 5.80486,-1.45914 l 3.01346,-0.0952 v -0.76128 q 0,-1.364 -0.72958,-1.9984 -0.69785,-0.63441 -1.96668,-0.63441 -1.26881,0 -2.47419,0.38065 -1.20538,0.34892 -2.41076,0.88816 l -1.55431,-3.20377 q 1.3957,-0.72956 3.07689,-1.14193 1.71291,-0.41238 3.55271,-0.41238 z m 0.66612,9.70651 q -2.28387,0.0634 -3.17205,0.82473 -0.88818,0.7613 -0.88818,1.9984 0,1.07849 0.63441,1.55431 0.63442,0.44408 1.64948,0.44408 1.52259,0 2.56936,-0.88816 1.04678,-0.91991 1.04678,-2.56938 v -1.42743 z"
       style="font-weight:bold;font-size:26.9024px;-inkscape-font-specification:'sans-serif Bold';letter-spacing:0px;fill:#ffffff;stroke-width:0.371725"
       id="path1913-9" /><path
       d="m 153.73482,325.68806 q 0.34892,0 0.82474,0.0317 0.47581,0.0317 0.76129,0.0952 l -0.34893,4.44087 q -0.22205,-0.0634 -0.66613,-0.0952 -0.41237,-0.0634 -0.72957,-0.0634 -1.20539,0 -2.31561,0.44408 -1.11021,0.41237 -1.80807,1.364 -0.66613,0.9516 -0.66613,2.60107 v 8.81832 h -4.72636 v -17.31943 h 3.58442 l 0.69786,2.9183 h 0.22205 q 0.76128,-1.33227 2.09354,-2.28388 1.33228,-0.95162 3.0769,-0.95162 z"
       style="font-weight:bold;font-size:26.9024px;-inkscape-font-specification:'sans-serif Bold';letter-spacing:0px;fill:#ffffff;stroke-width:0.371725"
       id="path1915-0" /><path
       d="m 165.75693,339.86715 q 0.79301,0 1.52258,-0.1586 0.72958,-0.1586 1.45915,-0.38065 v 3.52097 q -0.7613,0.31722 -1.90323,0.53927 -1.11023,0.25375 -2.44249,0.25375 -1.5543,0 -2.79141,-0.50752 -1.20538,-0.50753 -1.93495,-1.74464 -0.69786,-1.26882 -0.69786,-3.48926 v -8.34251 h -2.25216 v -1.99839 l 2.60109,-1.58603 1.36398,-3.64787 h 3.01346 v 3.67959 h 4.85325 v 3.5527 h -4.85325 v 8.34251 q 0,0.98334 0.57096,1.49086 0.57098,0.47582 1.49088,0.47582 z"
       style="font-weight:bold;font-size:26.9024px;-inkscape-font-specification:'sans-serif Bold';letter-spacing:0px;fill:#ffffff;stroke-width:0.371725"
       id="path1917-8" /><path
       d="m 179.65054,320.67621 q 4.53603,0 6.85165,1.26881 2.31559,1.26883 2.31559,4.47261 0,1.93496 -0.9199,3.26722 -0.88817,1.33226 -2.56936,1.61774 v 0.1586 q 1.14195,0.22205 2.06184,0.79302 0.9199,0.57097 1.45914,1.64948 0.53926,1.07849 0.53926,2.85484 0,3.0769 -2.22045,4.82153 -2.22044,1.74463 -6.09034,1.74463 h -8.4694 v -22.64848 z m 0.53924,8.97692 q 2.09357,0 2.88658,-0.66613 0.82473,-0.66614 0.82473,-1.93497 0,-1.30054 -0.95161,-1.87151 -0.95162,-0.57096 -3.01346,-0.57096 h -2.53764 v 5.04357 z m -2.7914,3.80645 v 5.90004 h 3.14034 q 2.15699,0 3.01345,-0.82474 0.85645,-0.85646 0.85645,-2.25216 0,-1.26882 -0.88817,-2.03012 -0.85645,-0.79302 -3.14033,-0.79302 z"
       style="font-weight:bold;font-size:26.9024px;-inkscape-font-specification:'sans-serif Bold';letter-spacing:0px;fill:#ffffff;stroke-width:0.371725"
       id="path1919-1" /><path
       d="m 198.27054,326.00526 v 17.31943 h -4.72636 v -17.31943 z"
       style="font-weight:bold;font-size:26.9024px;-inkscape-font-specification:'sans-serif Bold';letter-spacing:0px;fill:#ffffff;stroke-width:0.371725"
       id="path1921-3" /></g></svg>
